<?xml version="1.0" standalone="no"?>
<!DOCTYPE svg PUBLIC "-//W3C//DTD SVG 20010904//EN"
 "http://www.w3.org/TR/2001/REC-SVG-20010904/DTD/svg10.dtd">
<svg version="1.0" xmlns="http://www.w3.org/2000/svg"
 width="270.000000pt" height="270.000000pt" viewBox="0 0 270.000000 270.000000"
 preserveAspectRatio="xMidYMid meet">
<metadata>
Created by potrace 1.11, written by Peter Selinger 2001-2013
</metadata>
<g transform="translate(0.000000,270.000000) scale(0.100000,-0.100000)"
fill="#000000" stroke="none">
<path d="M1540 2088 c0 -2 0 -329 -1 -728 l0 -725 65 -3 66 -3 0 163 0 163
110 103 c60 57 113 101 117 98 5 -2 91 -122 193 -265 l185 -260 74 0 73 -1
-16 25 c-10 15 -69 99 -133 188 -238 331 -283 396 -283 402 0 4 92 99 205 211
113 113 205 207 205 209 0 3 -33 5 -72 5 l-73 0 -290 -284 -290 -283 -3 494
-2 493 -65 0 c-36 0 -65 -1 -65 -2z"/>
<path d="M693 1676 c-192 -47 -344 -200 -389 -393 -18 -77 -14 -230 8 -298 43
-132 147 -255 269 -320 180 -94 429 -62 574 76 62 59 102 116 89 128 -5 5 -31
14 -59 20 -40 10 -50 10 -54 0 -10 -31 -98 -111 -150 -136 -50 -25 -67 -28
-161 -28 -93 0 -111 3 -160 26 -115 55 -203 176 -224 307 l-6 42 445 0 c417 0
445 1 446 18 15 210 -101 425 -276 512 -116 58 -238 73 -352 46z m273 -129
c101 -47 180 -143 209 -256 27 -99 66 -90 -366 -90 l-381 0 7 45 c16 112 77
214 161 269 77 51 124 64 224 62 69 -2 97 -8 146 -30z"/>
</g>
</svg>
